<svg xmlns="http://www.w3.org/2000/svg" xmlns:xlink="http://www.w3.org/1999/xlink" version="1.1" x="0px" y="0px" viewBox="0 0 30 35.3375" enable-background="new 0 0 30 28.27" xml:space="preserve"><path d="M238.218-66.037c-0.117,1.911,1.266,2.432,1.607,2.531l-0.002,0.019c0,0-2.172,0.397-2.002,2.354  c0.15,1.771,1.643,1.997,1.932,2.024l-0.002,0.005c4.166,0,7.082,0,7.082,0s-3.559,11.125,1.346,11.125s0.029-10.94,9.717-17.681  v3.152h10.606v-15.159h-10.606v3.549c0,0-2.034-3.549-6.986-3.549c-4.951,0-7.689,0-8.555,0h-0.174c0,0-1.65,0-2.219,1.555  c-0.605,1.658,0.615,2.61,1.018,2.871c-0.475,0.066-2.08,0.424-2.227,2.303c-0.168,2.136,1.533,2.578,1.641,2.604l-0.002,0.006  C240.392-68.328,238.353-68.217,238.218-66.037z"/><path d="M154.395,250.275c0.117-1.911-1.266-2.432-1.607-2.531l0.002-0.019c0,0,2.172-0.397,2.002-2.354  c-0.15-1.771-1.643-1.997-1.932-2.024l0.002-0.005c-4.166,0-7.082,0-7.082,0s3.559-11.125-1.346-11.125  c-4.904,0-0.029,10.94-9.716,17.681v-3.152h-10.606v15.159h10.606v-3.549c0,0,2.034,3.549,6.986,3.549c4.951,0,7.689,0,8.555,0  h0.174c0,0,1.65,0,2.219-1.555c0.605-1.658-0.615-2.61-1.018-2.871c0.475-0.066,2.08-0.424,2.227-2.303  c0.168-2.136-1.533-2.578-1.641-2.604l0.002-0.006C152.221,252.566,154.26,252.456,154.395,250.275z"/><g><circle cx="369.014" cy="814.061" r="6.217"/><line fill="none" stroke="#000000" stroke-width="2" stroke-linejoin="round" stroke-miterlimit="10" x1="369.014" y1="823.116" x2="369.014" y2="828.688"/><line fill="none" stroke="#000000" stroke-width="2" stroke-linejoin="round" stroke-miterlimit="10" x1="369.014" y1="799.436" x2="369.014" y2="805.008"/><line fill="none" stroke="#000000" stroke-width="2" stroke-linejoin="round" stroke-miterlimit="10" x1="375.708" y1="819.755" x2="379.65" y2="823.697"/><line fill="none" stroke="#000000" stroke-width="2" stroke-linejoin="round" stroke-miterlimit="10" x1="359.379" y1="803.427" x2="363.321" y2="807.369"/><line fill="none" stroke="#000000" stroke-width="2" stroke-linejoin="round" stroke-miterlimit="10" x1="378.068" y1="814.061" x2="383.639" y2="814.061"/><line fill="none" stroke="#000000" stroke-width="2" stroke-linejoin="round" stroke-miterlimit="10" x1="354.389" y1="814.061" x2="359.96" y2="814.061"/><line fill="none" stroke="#000000" stroke-width="2" stroke-linejoin="round" stroke-miterlimit="10" x1="374.708" y1="807.369" x2="378.649" y2="803.427"/><line fill="none" stroke="#000000" stroke-width="2" stroke-linejoin="round" stroke-miterlimit="10" x1="359.379" y1="824.697" x2="363.321" y2="820.755"/></g><text transform="matrix(1 0 0 1 67.1714 402.8726)" font-family="'HelveticaNeueLTStd-Th'" font-size="39.0617">Additional Icons</text><text transform="matrix(1 0 0 1 106.5444 -145.1274)" font-family="'HelveticaNeueLTStd-Th'" font-size="39.0617">Main Icons</text><polygon points="-114.513,-53.233 -105.14,-53.233 -105.14,-60.733 -101.389,-60.733 -101.389,-53.233 -92.014,-53.233   -92.014,-64.483 -88.264,-64.483 -103.264,-79.483 -118.264,-64.483 -114.513,-64.483 "/><g><path fill="#000000" d="M134.036,183.042c-0.15,0-0.293-0.059-0.401-0.162c-0.024-0.022-2.463-2.382-12.218-12.138l-0.068-0.068   c-0.076-0.076-0.113-0.119-0.15-0.161c-1.473-1.592-2.266-3.609-2.266-5.715c0-4.612,3.754-8.365,8.365-8.365   c2.634,0,5.057,1.212,6.635,3.281c1.578-2.07,4.002-3.281,6.635-3.281c4.613,0,8.365,3.753,8.365,8.365   c0,2.334-0.944,4.503-2.659,6.106c0.004,0-0.016,0.023-0.039,0.045c-9.816,9.815-11.76,11.89-11.779,11.909   c-0.106,0.113-0.253,0.179-0.407,0.184C134.045,183.042,134.039,183.042,134.036,183.042z"/></g><path fill="#000000" d="M-92.82,260.727l-2.463-2.142c-1.402-1.107-3.905-0.816-5.591,0.652l-0.319,0.277  c-4.335-3.982-6.546-8.357-7.642-12.159l0.167-0.067c2.07-0.846,3.457-2.95,3.098-4.7l-0.529-3.333  c-0.3-1.468-1.871-2.132-3.547-1.838c0.001-0.012,0.003-0.019,0.003-0.019s-0.226,0.038-0.582,0.155  c-0.028,0.01-0.057,0.02-0.084,0.028c-0.065,0.023-0.131,0.047-0.203,0.074c-0.041,0.016-0.081,0.028-0.121,0.044l0,0.003  c-2.527,1.022-8.354,5.164,1.364,20.289c9.22,14.347,15.34,8.186,16.19,7.202C-91.505,263.735-91.454,261.808-92.82,260.727z"/><g><rect x="-117.304" y="81.19" fill="#000000" width="28.081" height="4.25"/><rect x="-117.304" y="91.19" fill="#000000" width="28.081" height="4.25"/><rect x="-117.304" y="101.19" fill="#000000" width="28.081" height="4.25"/></g><polygon fill="#000000" points="148.933,84.271 138.569,82.764 133.934,73.372 129.297,82.764 118.933,84.271 126.433,91.582   124.662,101.904 133.934,97.03 143.204,101.904 141.435,91.582 "/><g><rect x="-95.519" y="18.378" transform="matrix(0.707 -0.7072 0.7072 0.707 -44.7593 -59.1635)" fill="#000000" width="3.485" height="12.109"/><path fill="#000000" d="M-95.872,11.483c0-6.184-5.012-11.196-11.196-11.196c-6.184,0-11.196,5.013-11.196,11.196   s5.012,11.196,11.196,11.196C-100.884,22.679-95.872,17.667-95.872,11.483z M-107.067,19.92c-4.66,0-8.438-3.778-8.438-8.438   s3.777-8.438,8.438-8.438c4.66,0,8.437,3.778,8.437,8.438S-102.408,19.92-107.067,19.92z"/></g><path fill="#000000" d="M13.184,79.732c0.014,0,0.026-0.004,0.04-0.004c0.016,0,0.029,0.004,0.045,0.004  c0.212,0,0.419-0.076,0.592-0.2c0.743,0.418,1.583,0.355,2.254-0.02c0.178,0.135,0.394,0.219,0.617,0.219  c0.016,0,0.029-0.004,0.045-0.004c0.014,0.001,0.025,0.004,0.04,0.004c2.17,0.034,5.786,0.971,7.391-1.015  c0.123-0.152,0.189-0.313,0.219-0.475c0.064-0.136,0.097-0.299,0.077-0.495c-0.202-1.938,0.361-5.37-2.228-5.959  c-2.194-0.5-4.599,2.294-5.924,3.68c-0.005,0.005-0.009,0.012-0.014,0.018c-0.38-0.274-0.838-0.437-1.336-0.413  c-0.258,0.013-0.52,0.083-0.762,0.192c-0.206,0.005-0.413,0.076-0.6,0.195c-1.325-1.388-3.726-4.171-5.916-3.672  c-2.588,0.59-2.026,4.021-2.228,5.959c-0.02,0.196,0.013,0.359,0.077,0.496c0.031,0.162,0.098,0.323,0.22,0.475  C7.398,80.703,11.014,79.766,13.184,79.732z"/><g><polygon fill="#000000" points="14,81.328 8.014,81.328 0,81.328 0.018,88.198 14,88.198  "/><polygon fill="#000000" points="30,81.328 24.014,81.328 16,81.328 16.018,88.198 30,88.198  "/></g><g><polygon fill="#000000" points="8.056,96.263 5.238,96.768 8.944,90.198 1.721,90.198 1.721,107.477 14.028,107.477 14.028,90.198    9.389,98.427  "/><polygon fill="#000000" points="24.757,96.74 21.942,96.263 20.613,98.452 16.033,90.31 16.033,107.477 28.279,107.477    28.279,90.198 21.056,90.198  "/></g><g><polygon fill="#000000" points="28.576,-77.666 1.424,-77.666 15,-65.786  "/><polygon fill="#000000" points="20.046,-67.71 30,-56.572 30,-76.42  "/><polygon fill="#000000" points="0,-76.42 0,-56.572 9.953,-67.712  "/><polygon fill="#000000" points="15,-63.295 11.364,-66.476 1.257,-55.166 28.742,-55.166 18.635,-66.476  "/></g><g><polygon fill="#000000" points="7.634,0 7.634,16.691 20.193,16.691 25.993,23.201 25.993,16.691 30,16.691 30,0  "/><polygon fill="#000000" points="6.037,18.286 6.037,8.406 0,8.406 0,22.696 3.435,22.696 3.435,28.27 8.398,22.696 19.151,22.696    19.151,18.906 18.6,18.286  "/></g><path fill="#000000" d="M145.183,1.01h-22.5l-3.75,26.25h30L145.183,1.01z M140.382,8.299c-0.539,4.433-3.17,7.71-6.449,7.71  s-5.911-3.277-6.449-7.71c-0.615-0.306-1.051-0.928-1.051-1.665c0-1.037,0.839-1.875,1.875-1.875s1.875,0.839,1.875,1.875  c0,0.641-0.342,1.179-0.835,1.518c0.454,3.367,2.37,5.982,4.585,5.982c2.217,0,4.131-2.615,4.585-5.982  c-0.493-0.339-0.835-0.877-0.835-1.518c0-1.037,0.839-1.875,1.875-1.875s1.875,0.839,1.875,1.875  C141.433,7.371,140.999,7.994,140.382,8.299z"/><g><path fill="#000000" d="M-103.264,177.991c2.056,0,4.002-0.947,5.478-2.668c1.527-1.779,2.368-4.158,2.368-6.698   c0-5.165-3.519-9.368-7.846-9.368c-4.326,0-7.845,4.203-7.845,9.368c0,2.539,0.841,4.919,2.368,6.699   C-107.265,177.043-105.319,177.991-103.264,177.991z"/><path fill="#000000" d="M-97.004,176.997c-0.08,0.088-0.167,0.164-0.25,0.249c-0.101,0.103-0.202,0.206-0.306,0.304   c-0.126,0.118-0.258,0.229-0.391,0.338c-0.108,0.091-0.214,0.183-0.325,0.267c-0.136,0.104-0.276,0.196-0.417,0.291   c-0.113,0.077-0.225,0.156-0.34,0.227c-0.145,0.088-0.294,0.166-0.443,0.245c-0.117,0.062-0.231,0.127-0.349,0.184   c-0.155,0.073-0.313,0.134-0.472,0.197c-0.118,0.047-0.233,0.1-0.353,0.14c-0.168,0.059-0.339,0.104-0.511,0.15   c-0.112,0.031-0.225,0.068-0.339,0.095c-0.192,0.044-0.387,0.071-0.582,0.101c-0.098,0.015-0.194,0.037-0.292,0.048   c-0.294,0.034-0.591,0.051-0.891,0.051c-0.3,0-0.597-0.018-0.891-0.051c-0.096-0.012-0.189-0.033-0.284-0.047   c-0.197-0.029-0.395-0.058-0.589-0.102c-0.113-0.025-0.221-0.063-0.332-0.093c-0.174-0.048-0.348-0.092-0.519-0.152   c-0.117-0.04-0.229-0.091-0.344-0.137c-0.162-0.064-0.323-0.126-0.481-0.201c-0.116-0.054-0.228-0.119-0.342-0.18   c-0.152-0.08-0.304-0.159-0.451-0.249c-0.114-0.069-0.223-0.146-0.334-0.222c-0.142-0.096-0.284-0.19-0.422-0.296   c-0.11-0.083-0.215-0.174-0.323-0.264c-0.132-0.11-0.264-0.221-0.392-0.34c-0.105-0.098-0.206-0.202-0.308-0.306   c-0.082-0.084-0.168-0.16-0.248-0.247c-5.091,1.521-8.446,5.733-8.741,9.333v0.001h30   C-88.559,182.731-91.913,178.518-97.004,176.997z"/></g><path fill="#000000" d="M243.782,185.333l18.75-15l-18.75-15V185.333z"/><g><line fill="none" stroke="#000000" stroke-width="3" stroke-linecap="square" stroke-linejoin="round" stroke-miterlimit="10" x1="267.177" y1="658.131" x2="267.177" y2="633.514"/><path fill="#000000" d="M248.021,657.748l15.387-12.308l-15.387-12.309V657.748z"/><path fill="#000000" d="M230.636,657.748l15.385-12.308l-15.385-12.309V657.748z"/></g><g><line fill="none" stroke="#000000" stroke-width="3" stroke-linecap="square" stroke-linejoin="round" stroke-miterlimit="10" x1="138.441" y1="658.131" x2="138.441" y2="633.514"/><path fill="#000000" d="M118.935,657.939l15.626-12.499l-15.626-12.501V657.939z"/></g><path fill="#000000" d="M349.667-78.788l14.999,18.75l15-18.75H349.667z"/><path fill="#000000" d="M379.666,21.256l-14.999-18.75l-15,18.75H379.666z"/><path fill="#000000" d="M262.532,233.948l-18.75,15l18.75,15V233.948z"/><g><path fill="#000000" d="M366.941,488.805c-0.301,0.425-0.585,0.634-0.855,0.634c-0.181,0-0.284-0.107-0.316-0.316   c-0.012-0.045-0.012-0.209-0.012-0.526v-5.494h-1.354v5.901c0,0.526,0.046,0.885,0.121,1.11c0.135,0.378,0.436,0.555,0.871,0.555   c0.497,0,1.008-0.3,1.545-0.916v0.813h1.353v-7.464h-1.353V488.805z"/><path fill="#000000" d="M372.214,483.01c-0.496,0-0.959,0.271-1.397,0.81v-3.271h-1.353v10.018h1.353v-0.725   c0.452,0.56,0.917,0.826,1.397,0.826c0.538,0,0.902-0.283,1.08-0.839c0.091-0.316,0.139-0.813,0.139-1.503v-2.973   c0-0.708-0.047-1.201-0.139-1.5C373.115,483.293,372.752,483.01,372.214,483.01z M372.08,488.431c0,0.675-0.197,1.008-0.588,1.008   c-0.223,0-0.448-0.107-0.675-0.333v-4.55c0.227-0.223,0.452-0.328,0.675-0.328c0.391,0,0.588,0.346,0.588,1.019V488.431z"/><polygon fill="#000000" points="359.493,481.958 361.083,481.958 361.083,490.565 362.587,490.565 362.587,481.958    364.208,481.958 364.208,480.548 359.493,480.548  "/><path fill="#000000" d="M368.102,476.485c0.485,0,0.721-0.386,0.721-1.158v-3.509c0-0.772-0.235-1.157-0.721-1.157   c-0.487,0-0.723,0.386-0.723,1.157v3.509C367.379,476.099,367.615,476.485,368.102,476.485z"/><path fill="#000000" d="M376.521,483.01c-0.69,0-1.227,0.254-1.619,0.766c-0.287,0.378-0.419,0.961-0.419,1.759v2.613   c0,0.794,0.147,1.382,0.436,1.756c0.391,0.511,0.93,0.765,1.637,0.765c0.706,0,1.26-0.268,1.636-0.81   c0.164-0.239,0.27-0.51,0.316-0.81c0.012-0.136,0.028-0.436,0.028-0.872v-0.197h-1.379c0,0.543-0.02,0.843-0.032,0.916   c-0.076,0.362-0.27,0.543-0.604,0.543c-0.464,0-0.69-0.346-0.69-1.035v-1.324h2.705v-1.545c0-0.799-0.136-1.381-0.419-1.759   C377.738,483.264,377.2,483.01,376.521,483.01z M377.183,485.954h-1.352v-0.69c0-0.691,0.227-1.035,0.678-1.035   c0.448,0,0.674,0.346,0.674,1.035V485.954z"/><path fill="#000000" d="M384.014,465.478h-30c0,0,0,0.715,0,1.596v28.404c0,0,0.715,0,1.596,0h26.809c0.881,0,1.596,0,1.596,0   v-28.404C384.014,466.193,384.014,465.478,384.014,465.478z M371.246,469.801h1.362v5.554c0,0.32,0,0.486,0.017,0.531   c0.03,0.212,0.137,0.319,0.32,0.319c0.273,0,0.56-0.211,0.862-0.639v-5.766h1.368v7.543h-1.368v-0.822   c-0.543,0.623-1.063,0.927-1.561,0.927c-0.439,0-0.744-0.179-0.88-0.562c-0.075-0.229-0.121-0.589-0.121-1.12V469.801z    M366.083,472.261c0-0.807,0.136-1.396,0.428-1.777c0.379-0.516,0.909-0.774,1.591-0.774c0.685,0,1.217,0.259,1.595,0.774   c0.285,0.381,0.424,0.971,0.424,1.777v2.641c0,0.802-0.139,1.396-0.424,1.773c-0.378,0.515-0.91,0.773-1.595,0.773   c-0.682,0-1.212-0.259-1.591-0.773c-0.292-0.377-0.428-0.972-0.428-1.773V472.261z M362.427,467.222l1.077,3.976l1.033-3.976h1.532   l-1.823,6.021v4.101h-1.515v-4.101c-0.138-0.725-0.441-1.789-0.928-3.201c-0.319-0.939-0.651-1.881-0.972-2.82H362.427   L362.427,467.222z M379.812,491.224c-0.273,1.19-1.247,2.068-2.419,2.199c-2.774,0.311-5.583,0.312-8.38,0.311   c-2.797,0.001-5.605,0-8.38-0.311c-1.172-0.131-2.146-1.009-2.418-2.199c-0.391-1.695-0.391-3.545-0.391-5.289   c0-1.745,0.005-3.596,0.395-5.29c0.273-1.191,1.248-2.069,2.418-2.2c2.775-0.31,5.584-0.311,8.38-0.31   c2.796-0.001,5.605,0,8.381,0.31c1.171,0.131,2.146,1.009,2.419,2.2c0.39,1.694,0.387,3.545,0.387,5.29   C380.204,487.679,380.203,489.529,379.812,491.224z"/></g><path fill="#000000" d="M263.906,466.208v28.54c0,0.212,0,0.729,0,0.729s-0.554,0-0.768,0h-28.465c-0.213,0-0.768,0-0.768,0  s0-0.518,0-0.729v-28.54c0-0.212,0-0.73,0-0.73l0.768,0.002h28.465l0.768-0.002V466.208z M254.759,491.99v-10.592h3.902l0.16-3.805  h-4.063v-2.791c0-0.527,0.091-0.945,0.271-1.253c0.182-0.306,0.613-0.448,1.296-0.428h2.399l0.096-3.552  c-0.299-0.041-0.603-0.068-0.912-0.079c-0.309-0.011-0.592-0.026-0.848-0.048c-0.299-0.021-0.598-0.03-0.895-0.03  c-0.939-0.064-1.744,0.036-2.416,0.3c-0.671,0.265-1.225,0.636-1.662,1.11c-0.438,0.476-0.764,1.021-0.977,1.634  s-0.318,1.235-0.318,1.871v3.266h-2.752v3.805h2.752v10.592H254.759z"/><path fill="#000000" d="M478.168-82.935c0,0.756,0,4.131,0,4.131h-3.026v5.051h3.026v15.008h6.216v-15.008h4.172  c0,0,0.391-2.422,0.58-5.07c-0.544,0-4.729,0-4.729,0s0-2.938,0-3.453c0-0.517,0.678-1.21,1.348-1.21c0.669,0,2.08,0,3.387,0  c0-0.688,0-3.063,0-5.259c-1.745,0-3.729,0-4.604,0C478.014-88.746,478.168-83.69,478.168-82.935z"/><path fill="#000000" d="M468.489,85.048c0,2.546,0.85,4.384,2.526,5.464c1.372,0.885,2.967,1.017,3.794,1.017  c0.201,0,0.362-0.008,0.476-0.016c0,0-0.264,1.71,1.005,3.403l-0.058-0.001c-2.197,0.001-9.364,0.46-9.364,6.352  c0,5.994,6.583,6.299,7.903,6.299c0.104,0,0.163-0.002,0.163-0.002c0.015,0,0.109,0.004,0.27,0.004c0.848,0,3.039-0.106,5.073-1.096  c2.639-1.28,3.978-3.509,3.978-6.622c0-3.008-2.039-4.799-3.528-6.107c-0.909-0.797-1.694-1.485-1.694-2.155  c0-0.682,0.573-1.195,1.299-1.845c1.175-1.05,2.281-2.545,2.281-5.37c0-2.484-0.322-4.152-2.308-5.21  c0.208-0.105,0.938-0.184,1.301-0.233c1.076-0.146,2.649-0.313,2.649-1.191v-0.17h-7.839  C476.336,77.57,468.489,77.861,468.489,85.048z M481.142,100.412c0.149,2.397-1.901,4.166-4.979,4.39  c-3.128,0.229-5.702-1.179-5.853-3.573c-0.072-1.15,0.434-2.278,1.424-3.176c1.005-0.91,2.384-1.471,3.884-1.582  c0.178-0.011,0.354-0.018,0.528-0.018C479.04,96.453,481,98.153,481.142,100.412z M479.095,83.408  c0.77,2.705-0.393,5.532-2.242,6.055c-0.213,0.06-0.434,0.09-0.655,0.09c-1.695,0-3.375-1.715-3.997-4.077  c-0.348-1.327-0.32-2.487,0.079-3.603c0.392-1.098,1.096-1.839,1.981-2.088c0.213-0.061,0.434-0.091,0.656-0.091  C476.964,79.693,478.281,80.542,479.095,83.408z M492.302,89.298v-5.113h-3.238v5.113h-5.113v3.239h5.113v5.113h3.238v-5.113h5.114  v-3.239H492.302z"/><path fill="#000000" d="M138.152,476.123h5.532v18.597c0,0.21,0.004,0.759,0.004,0.759s-0.558-0.001-0.771-0.001h-12.535  c0.17-0.568,0.255-1.181,0.255-1.836c0-0.739-0.138-1.42-0.416-2.044c-0.277-0.622-0.634-1.198-1.071-1.727  c-0.437-0.526-0.917-1.014-1.439-1.455c-0.522-0.445-1.029-0.856-1.519-1.236l-1.567-1.205c-0.256-0.19-0.513-0.428-0.767-0.713  c-0.257-0.285-0.384-0.671-0.384-1.156s0.132-0.891,0.399-1.219s0.538-0.629,0.815-0.902c0.47-0.36,0.917-0.734,1.343-1.126  c0.427-0.391,0.806-0.829,1.136-1.314c0.33-0.485,0.59-1.03,0.782-1.632c0.192-0.601,0.289-1.303,0.289-2.106  c0-0.739-0.091-1.399-0.272-1.979c-0.181-0.582-0.404-1.094-0.671-1.537c-0.266-0.444-0.555-0.829-0.864-1.155  c-0.309-0.327-0.592-0.607-0.847-0.84h2.654l2.462-1.966h-9.242c-0.575,0-1.172,0.033-1.791,0.096  c-0.618,0.064-1.247,0.181-1.887,0.35c-0.639,0.169-1.285,0.417-1.935,0.744c-0.65,0.328-1.284,0.744-1.902,1.252  c-0.043,0.041-0.085,0.078-0.127,0.111c-0.042,0.031-0.086,0.067-0.128,0.109v-4.753c0-0.21,0-0.759,0-0.759s0.554,0,0.768,0h28.46  c0.213,0,0.768,0,0.768,0s0,0.549,0,0.759v7.604h-5.532v-5.513h-2.398v5.513h-5.533v2.281h5.533v5.543h2.398V476.123z   M122.163,489.236c0.832,0.592,1.594,1.119,2.287,1.584c0.693,0.467,1.295,0.916,1.807,1.347c0.512,0.434,0.912,0.878,1.2,1.333  c0.288,0.453,0.432,0.955,0.432,1.504c0,0.104-0.006,0.195-0.016,0.269c-0.011,0.075-0.027,0.143-0.049,0.206h-13.366h-0.769  c0,0,0.001-0.549,0.001-0.759v-2.978c0.469-0.551,0.991-0.973,1.566-1.27c0.576-0.295,1.014-0.495,1.312-0.6  c0.447-0.15,0.922-0.271,1.423-0.365c0.5-0.094,0.97-0.163,1.407-0.207c0.437-0.042,0.815-0.074,1.135-0.094  c0.319-0.021,0.533-0.031,0.64-0.031h0.528C121.7,489.175,121.854,489.195,122.163,489.236z M124.688,477.8  c0,0.317-0.085,0.74-0.255,1.268c-0.171,0.528-0.469,1.035-0.896,1.521c-0.362,0.422-0.804,0.707-1.327,0.855  c-0.522,0.148-1.06,0.221-1.614,0.221c-0.938,0-1.738-0.237-2.399-0.712c-0.66-0.476-1.204-1.077-1.63-1.808  c-0.427-0.727-0.741-1.508-0.943-2.343c-0.203-0.833-0.304-1.621-0.304-2.359c0-0.55,0.048-1.104,0.144-1.663  c0.097-0.561,0.336-1.073,0.72-1.538c0.363-0.421,0.821-0.764,1.376-1.028c0.554-0.264,1.108-0.396,1.663-0.396  c0.917,0,1.716,0.27,2.398,0.808c0.683,0.539,1.253,1.208,1.711,2.013c0.458,0.802,0.799,1.667,1.023,2.596  C124.578,476.164,124.688,477.021,124.688,477.8z M119.381,485.023c0,0.677,0.144,1.236,0.432,1.681  c0.287,0.443,0.58,0.865,0.879,1.267c-0.426,0.021-0.933,0.033-1.519,0.033c-0.585,0-1.205,0.036-1.854,0.11  c-0.65,0.073-1.291,0.194-1.919,0.363c-0.629,0.171-1.199,0.443-1.711,0.823v-7.539c0.596,0.465,1.29,0.855,2.079,1.173  c0.788,0.315,1.672,0.473,2.654,0.473c0.427,0,0.885-0.03,1.376-0.093c-0.107,0.273-0.204,0.533-0.289,0.775  C119.423,484.332,119.381,484.643,119.381,485.023z"/><path fill="#000000" d="M-1.075,465.478v30h30v-30H-1.075z M15.755,485.765c-1.471,0-2.857-0.797-3.33-1.699  c0,0-0.793,3.14-0.959,3.744c-0.591,2.145-2.327,4.285-2.46,4.461c-0.095,0.123-0.303,0.084-0.326-0.076  c-0.037-0.275-0.481-2.978,0.041-5.18c0.262-1.108,1.754-7.43,1.754-7.43s-0.436-0.868-0.436-2.155c0-2.021,1.172-3.529,2.631-3.529  c1.239,0,1.836,0.931,1.836,2.046c0,1.247-0.793,3.11-1.203,4.838c-0.34,1.447,0.723,2.626,2.151,2.626  c2.583,0,4.322-3.317,4.322-7.247c0-2.988-2.011-5.223-5.672-5.223c-4.134,0-6.711,3.084-6.711,6.527c0,1.189,0.352,2.025,0.9,2.674  c0.253,0.299,0.287,0.417,0.196,0.762c-0.066,0.252-0.215,0.854-0.28,1.094c-0.088,0.347-0.371,0.467-0.682,0.34  c-1.904-0.777-2.792-2.861-2.792-5.207c0-3.873,3.264-8.517,9.743-8.517c5.206,0,8.629,3.768,8.629,7.811  C23.11,481.769,20.137,485.765,15.755,485.765z"/><path fill="#000000" d="M493.675,166.08c-0.818-5.93-6.728-8.949-13.032-8.24c-4.984,0.556-9.952,4.587-10.162,10.35  c-0.124,3.518,0.874,6.156,4.22,6.897c1.45-2.565-0.465-3.125-0.766-4.984c-1.229-7.594,8.76-12.779,13.992-7.473  c3.62,3.674,1.235,14.973-4.6,13.797c-5.591-1.12,2.737-10.114-1.724-11.88c-3.626-1.436-5.552,4.39-3.832,7.282  c-1.01,4.979-3.181,9.667-2.302,15.908c2.851-2.068,3.812-6.027,4.599-10.158c1.435,0.871,2.201,1.776,4.027,1.915  C490.833,180.016,494.598,172.77,493.675,166.08z"/><path fill="#000000" d="M493.743,9.062c1.686-0.139,2.828-0.905,3.268-1.945  c-0.607,0.375-2.494,0.781-3.536,0.394c-0.052-0.245-0.108-0.479-0.164-0.687c-0.794-2.916-3.513-5.265-6.36-4.98  c0.23-0.094,0.465-0.181,0.697-0.258c0.313-0.113,2.152-0.412,1.863-1.061c-0.244-0.571-2.492,0.432-2.915,0.563  c0.558-0.209,1.482-0.571,1.581-1.214c-0.855,0.118-1.695,0.522-2.345,1.11c0.234-0.252,0.412-0.56,0.45-0.891  c-2.283,1.459-3.616,4.399-4.695,7.251c-0.848-0.821-1.599-1.469-2.271-1.827c-1.891-1.014-4.15-2.071-7.697-3.389  c-0.109,1.174,0.58,2.735,2.566,3.773c-0.431-0.058-1.217,0.072-1.847,0.222c0.257,1.345,1.094,2.452,3.359,2.988  c-1.035,0.068-1.57,0.303-2.056,0.811c0.472,0.936,1.623,2.037,3.693,1.81c-2.301,0.993-0.938,2.831,0.935,2.556  c-3.194,3.3-8.233,3.059-11.127,0.297c7.554,10.293,23.974,6.088,26.421-3.827c1.832,0.015,2.911-0.635,3.579-1.353  C496.085,9.585,494.555,9.4,493.743,9.062z"/><path fill="#000000" d="M-124.66,465.478v30h30v-30H-124.66z M-102.391,476.749c0.008,0.161,0.011,0.323,0.011,0.486  c0,4.956-3.77,10.671-10.671,10.671c-2.119,0-4.088-0.617-5.75-1.684c0.294,0.033,0.592,0.051,0.896,0.051  c1.758,0,3.374-0.599,4.657-1.604c-1.641-0.03-3.026-1.114-3.502-2.603c0.229,0.044,0.463,0.066,0.705,0.066  c0.342,0,0.674-0.047,0.988-0.135c-1.714-0.344-3.008-1.857-3.008-3.677c0-0.017,0-0.031,0-0.048c0.507,0.282,1.084,0.45,1.7,0.469  c-1.006-0.672-1.668-1.819-1.668-3.123c0-0.686,0.185-1.331,0.508-1.885c1.849,2.27,4.614,3.765,7.73,3.918  c-0.063-0.273-0.098-0.559-0.098-0.852c0-2.072,1.68-3.75,3.752-3.75c1.076,0,2.051,0.453,2.736,1.184  c0.853-0.168,1.657-0.48,2.382-0.91c-0.281,0.877-0.875,1.611-1.649,2.075c0.759-0.092,1.482-0.293,2.153-0.59  C-101.021,475.562-101.657,476.221-102.391,476.749z"/><path fill="#000000" d="M492.518,257.861h-1.976l0.009-1.147c0-0.511,0.419-0.928,0.931-0.928h0.126  c0.513,0,0.933,0.417,0.933,0.928L492.518,257.861z M485.107,255.401c-0.501,0-0.911,0.337-0.911,0.75v5.581  c0,0.411,0.41,0.747,0.911,0.747c0.504,0,0.914-0.336,0.914-0.747v-5.581C486.021,255.738,485.611,255.401,485.107,255.401z   M497.142,252.28v10.617c0,2.547-2.209,4.631-4.908,4.631H472.05c-2.7,0-4.908-2.084-4.908-4.631V252.28  c0-2.547,2.208-4.632,4.908-4.632h20.184C494.933,247.648,497.142,249.733,497.142,252.28z M473.397,264.049l-0.002-11.184h2.503  v-1.656l-6.67-0.011v1.63l2.082,0.006v11.215H473.397z M480.897,254.532h-2.086v5.972c0,0.864,0.052,1.296-0.003,1.448  c-0.17,0.464-0.933,0.955-1.229,0.051c-0.051-0.158-0.006-0.637-0.007-1.457l-0.009-6.014h-2.074l0.007,5.919  c0.001,0.907-0.021,1.583,0.007,1.892c0.051,0.543,0.032,1.176,0.536,1.537c0.938,0.676,2.737-0.102,3.188-1.067l-0.004,1.233  l1.676,0.002L480.897,254.532L480.897,254.532z M487.57,261.371l-0.004-4.971c-0.002-1.895-1.419-3.029-3.343-1.496l0.008-3.696  l-2.083,0.004l-0.011,12.756l1.714-0.025l0.155-0.795C486.197,265.157,487.574,263.78,487.57,261.371z M494.098,260.711  l-1.563,0.009c-0.001,0.062-0.004,0.134-0.004,0.212v0.872c0,0.468-0.387,0.848-0.855,0.848h-0.306c-0.47,0-0.855-0.38-0.855-0.848  v-0.097v-0.96v-1.238h3.581v-1.349c0-0.984-0.025-1.97-0.106-2.533c-0.256-1.781-2.757-2.064-4.021-1.152  c-0.396,0.285-0.699,0.666-0.875,1.179c-0.178,0.513-0.266,1.212-0.266,2.102v2.964C488.828,265.646,494.812,264.95,494.098,260.711  z M486.076,244.621c0.107,0.262,0.274,0.474,0.501,0.634c0.224,0.157,0.511,0.236,0.854,0.236c0.301,0,0.567-0.081,0.8-0.248  c0.23-0.167,0.426-0.416,0.585-0.749l-0.04,0.818h2.326v-9.888h-1.831v7.695c0,0.417-0.343,0.758-0.763,0.758  c-0.417,0-0.762-0.341-0.762-0.758v-7.695h-1.91v6.669c0,0.85,0.016,1.416,0.04,1.703  C485.902,244.082,485.968,244.355,486.076,244.621z M479.029,239.036c0-0.949,0.079-1.69,0.236-2.225  c0.158-0.532,0.443-0.961,0.855-1.283c0.41-0.324,0.937-0.486,1.576-0.486c0.537,0,0.998,0.105,1.384,0.313  c0.387,0.207,0.685,0.478,0.892,0.811c0.211,0.334,0.354,0.678,0.431,1.029c0.078,0.356,0.116,0.895,0.116,1.619v2.501  c0,0.917-0.036,1.592-0.107,2.021c-0.071,0.43-0.223,0.828-0.459,1.202c-0.231,0.369-0.531,0.646-0.895,0.822  c-0.367,0.178-0.787,0.265-1.262,0.265c-0.53,0-0.977-0.073-1.344-0.226c-0.37-0.152-0.655-0.381-0.858-0.686  c-0.205-0.305-0.35-0.676-0.437-1.108c-0.088-0.434-0.129-1.083-0.129-1.95V239.036L479.029,239.036z M480.85,242.963  c0,0.561,0.417,1.018,0.925,1.018s0.923-0.457,0.923-1.018V237.7c0-0.559-0.415-1.017-0.923-1.017s-0.925,0.458-0.925,1.017V242.963  z M474.415,245.622h2.194l0.002-7.584l2.592-6.496h-2.398l-1.379,4.825l-1.397-4.839h-2.374l2.758,6.514L474.415,245.622z"/><g><rect x="251.157" y="-0.865" fill="#000000" width="4" height="30"/><rect x="238.157" y="12.135" fill="#000000" width="30" height="4"/></g><g><rect x="11.925" y="630.397" transform="matrix(0.7071 0.7071 -0.7071 0.7071 460.4431 179.1861)" fill="#000000" width="4" height="30"/><rect x="11.925" y="630.397" transform="matrix(-0.7071 0.7071 -0.7071 -0.7071 480.1361 1091.915)" fill="#000000" width="4" height="30"/></g><g><circle cx="-109.66" cy="726.913" r="15"/><g><rect x="-110.833" y="718.112" transform="matrix(0.7071 0.7071 -0.7071 0.7071 481.8856 290.4484)" fill="#000000" width="2.346" height="17.599"/><rect x="-110.833" y="718.112" transform="matrix(-0.7071 0.7071 -0.7071 -0.7071 326.8038 1318.4567)" fill="#000000" width="2.346" height="17.599"/></g></g><rect x="238.157" y="88.198" fill="#000000" width="30" height="4"/><g><path fill="#000000" d="M27.208,261.904c-0.619,0-1.147,0.22-1.585,0.657c-0.437,0.438-0.657,0.966-0.657,1.585   s0.22,1.146,0.657,1.584c0.438,0.438,0.966,0.657,1.585,0.657c0.618,0,1.147-0.219,1.584-0.657   c0.438-0.438,0.657-0.965,0.657-1.584s-0.219-1.147-0.657-1.585C28.354,262.124,27.826,261.904,27.208,261.904z"/><path fill="#000000" d="M12.771,261.904c-0.619,0-1.147,0.22-1.585,0.657c-0.437,0.438-0.657,0.966-0.657,1.585   s0.22,1.146,0.657,1.584c0.438,0.438,0.966,0.657,1.585,0.657c0.618,0,1.147-0.219,1.584-0.657   c0.438-0.438,0.657-0.965,0.657-1.584s-0.219-1.147-0.657-1.585C13.917,262.124,13.389,261.904,12.771,261.904z"/><path fill="#000000" d="M30.684,242.966c0,0-0.811,0.005-1.114,0.005H8.347c-0.012-0.082-0.707-2.81-0.748-3.025   c-0.041-0.217-0.073-0.389-0.096-0.518c-0.024-0.128-0.067-0.282-0.132-0.463c-0.064-0.182-0.14-0.324-0.228-0.43   s-0.204-0.195-0.35-0.271c-0.146-0.075-0.313-0.113-0.499-0.113H2.043H1.812h-2.503v2.237h2.483c0.007,0-0.568,0.004-0.561,0.004   h4.153l3.959,16.992l0.876,3.521h1.121h15.868h0.835h0.285h1.762v-2.242h-1.762h-0.285H12.409l-0.61-2.347l17.894-2.137   c0.292-0.034,0.531-0.16,0.718-0.376s0.28-0.464,0.28-0.744v-8.967C30.691,243.789,30.684,242.966,30.684,242.966z"/></g><path fill="#000000" d="M30,172.85l-17.214-17.302H0l0.03,12.723l17.218,17.278L30,172.85z M2.5,159.922  c0-1.037,0.839-1.874,1.874-1.874c1.037,0,1.876,0.837,1.876,1.874c0,1.036-0.84,1.876-1.876,1.876  C3.339,161.798,2.5,160.958,2.5,159.922z"/><path fill="#000000" d="M501.347,818.079l-17.213-17.303h-12.787l0.03,12.723l17.218,17.277L501.347,818.079z M473.847,805.15  c0-1.036,0.84-1.874,1.874-1.874c1.036,0,1.876,0.838,1.876,1.874s-0.84,1.876-1.876,1.876  C474.687,807.026,473.847,806.186,473.847,805.15z M488.031,821.909c-0.921-0.143-1.819-0.652-2.693-1.525l1.4-1.403  c0.6,0.599,1.197,0.966,1.791,1.099c0.594,0.132,1.095-0.005,1.504-0.414c0.43-0.43,0.598-0.895,0.508-1.399  c-0.09-0.504-0.375-0.995-0.854-1.474c-0.451-0.451-0.92-0.708-1.406-0.771c-0.483-0.062-1.148,0.062-1.99,0.369  c-1.167,0.529-2.182,0.776-3.047,0.739s-1.693-0.451-2.486-1.242c-0.771-0.771-1.183-1.604-1.23-2.494  c-0.05-0.892,0.25-1.739,0.9-2.545l-1.333-1.333L480,808.61l1.331,1.333c0.804-0.646,1.683-0.954,2.64-0.925  c0.959,0.027,1.91,0.529,2.858,1.505l0.014,0.055l-1.354,1.354c-0.718-0.72-1.376-1.088-1.97-1.109  c-0.597-0.021-1.113,0.188-1.551,0.625c-0.451,0.451-0.652,0.947-0.604,1.487s0.312,1.052,0.791,1.53  c0.441,0.441,0.914,0.695,1.422,0.759c0.506,0.065,1.158-0.05,1.954-0.339c1.17-0.544,2.188-0.799,3.056-0.764  s1.699,0.449,2.496,1.246c0.756,0.756,1.17,1.573,1.242,2.459c0.076,0.883-0.197,1.723-0.814,2.514l1.465,1.463l-0.905,0.905  l-1.472-1.47C489.808,821.827,488.952,822.049,488.031,821.909z"/><g><rect x="347.166" y="157.947" fill="#000000" width="35" height="5.756"/><path fill="#000000" d="M347.166,181.527h35v-13.551h-35V181.527z M370.132,176.57h9.111v1.539h-9.111V176.57z"/></g><g><polygon fill="#000000" points="368.607,237.528 352.607,237.528 352.607,267.528 368.607,267.528 376.607,267.528    376.607,247.528 368.607,247.528  "/><polygon fill="#000000" points="370.638,237.551 370.638,245.583 376.724,245.583  "/></g><g><path fill="#000000" d="M355.934,82.321l18.333,10.541c1.981-3.444,1.803-7.533-0.107-10.715l3.77-6.551l2.38,1.37   c0.818-1.42-1.581-4.332-5.358-6.504c-3.776-2.171-7.499-2.78-8.315-1.359l2.383,1.37l-3.769,6.551   C361.54,76.973,357.915,78.877,355.934,82.321z"/><polygon fill="#000000" points="357.7,102.953 358.268,102.706 358.668,102.009 361.325,97.391 363.682,93.292 364.467,91.931    365.506,90.122 362.708,88.513 362.077,89.607 361.368,90.838 360.387,92.545 357.437,97.674 355.469,101.096 355.49,101.271    355.788,103.781  "/></g><path fill-rule="evenodd" clip-rule="evenodd" fill="#000000" d="M151.883-68.997h-35.9v-3.366h15.746l6.917-12.05l2.915,1.683  l-5.945,10.367h16.268V-68.997z M145.151-54.413h-22.438l-3.058-13.182h28.554L145.151-54.413z M141.786-59.531  c-0.929,0-1.683,0.753-1.683,1.683c0,0.929,0.753,1.683,1.683,1.683s1.683-0.754,1.683-1.683  C143.469-58.778,142.715-59.531,141.786-59.531z"/><g><rect x="-101.915" y="570.023" transform="matrix(0.707 -0.7072 0.7072 0.707 -436.783 97.9634)" width="3.485" height="12.109"/><path d="M-102.268,563.128c0-6.184-5.012-11.197-11.196-11.197c-6.184,0-11.196,5.014-11.196,11.197s5.012,11.195,11.196,11.195   C-107.28,574.324-102.268,569.312-102.268,563.128z M-113.463,571.566c-4.66,0-8.438-3.778-8.438-8.438   c0-4.66,3.777-8.438,8.438-8.438c4.66,0,8.437,3.777,8.437,8.438C-105.026,567.788-108.804,571.566-113.463,571.566z"/><g><rect x="-114.378" y="558.335" fill="#000000" width="1.83" height="9.584"/><rect x="-118.256" y="562.212" fill="#000000" width="9.584" height="1.83"/></g></g><g><rect x="21.67" y="570.023" transform="matrix(0.707 -0.7072 0.7072 0.707 -400.5686 185.3681)" fill="#000000" width="3.485" height="12.109"/><path fill="#000000" d="M21.317,563.128c0-6.184-5.012-11.197-11.196-11.197c-6.184,0-11.196,5.014-11.196,11.197   s5.012,11.195,11.196,11.195C16.305,574.324,21.317,569.312,21.317,563.128z M10.121,571.566c-4.66,0-8.438-3.778-8.438-8.438   c0-4.66,3.777-8.438,8.438-8.438c4.66,0,8.437,3.777,8.437,8.438C18.558,567.788,14.781,571.566,10.121,571.566z"/><g><rect x="5.329" y="562.489" fill="#000000" width="9.584" height="1.278"/></g><rect x="5.329" y="562.212" fill="#000000" width="9.584" height="1.83"/></g><g><polygon fill="#000000" points="121.188,572.185 121.188,577.81 136.188,577.81 136.188,572.185 136.188,568.435 121.188,568.435     "/><polygon fill="#000000" points="136.188,555.31 136.188,549.685 121.188,549.685 121.188,555.31 121.188,559.06 136.188,559.06     "/><path fill="#000000" d="M139.938,555.31h-1.875v3.75v1.875h-18.75v-1.875v-3.75h-1.875c-1.875,0-3.75,1.875-3.75,3.75v9.375   c0,1.875,1.875,3.75,3.75,3.75h1.875v-3.75v-1.875h18.75v1.875v3.75h1.875c1.875,0,3.75-1.875,3.75-3.75v-9.375   C143.688,557.185,141.813,555.31,139.938,555.31z"/></g><g><g><path fill="#000000" d="M259.935,563.132l-0.145-0.051l-0.557-1.33l0.061-0.137c1.689-3.829,1.572-3.943,1.293-4.221l-2.252-2.197    c-0.094-0.092-0.256-0.155-0.395-0.155c-0.127,0-0.51,0-3.838,1.506l-0.133,0.061l-1.371-0.553l-0.057-0.138    c-1.563-3.872-1.725-3.872-2.113-3.872h-3.18c-0.389,0-0.564,0-2.016,3.879l-0.055,0.142l-1.365,0.557l-0.131-0.054    c-2.25-0.949-3.564-1.431-3.908-1.431c-0.139,0-0.301,0.063-0.393,0.153l-2.256,2.203c-0.285,0.282-0.404,0.4,1.373,4.149    l0.064,0.139l-0.557,1.329l-0.137,0.054c-3.965,1.531-3.965,1.681-3.965,2.08v3.116c0,0.4,0,0.566,3.973,1.989l0.141,0.051    l0.559,1.325l-0.059,0.135c-1.689,3.831-1.582,3.935-1.295,4.221l2.248,2.2c0.096,0.091,0.258,0.155,0.398,0.155    c0.125,0,0.508,0,3.836-1.506l0.133-0.063l1.373,0.556l0.055,0.138c1.564,3.871,1.725,3.871,2.115,3.871h3.182    c0.398,0,0.564,0,2.016-3.882l0.055-0.142l1.367-0.553l0.131,0.053c2.25,0.952,3.563,1.433,3.904,1.433    c0.137,0,0.301-0.061,0.395-0.153l2.258-2.209c0.285-0.283,0.402-0.399-1.377-4.145l-0.066-0.141l0.557-1.323l0.135-0.053    c3.969-1.539,3.969-1.689,3.969-2.089v-3.115C263.906,564.715,263.906,564.551,259.935,563.132z M248.906,571.794    c-2.842,0-5.154-2.269-5.154-5.054c0-2.786,2.313-5.052,5.154-5.052s5.154,2.266,5.154,5.052    C254.06,569.526,251.748,571.794,248.906,571.794z"/></g></g><path fill="#000000" d="M378.234,564.03l-0.005,0.068c0,0.008,0.005,0.016,0.005,0.022c0,0.019-0.006,0.034-0.007,0.052  l-0.719,14.677h-0.004c-0.063,1.151-1.382,2.891-8.491,2.891s-8.428-1.739-8.491-2.891h-0.001l-0.716-14.677  c-0.002-0.016-0.008-0.033-0.008-0.052c0-0.008,0.003-0.016,0.003-0.022l-0.003-0.068h0.008c0.026-0.124,0.097-0.246,0.21-0.361  c0.919,0.93,4.597,1.083,8.998,1.083c4.4,0,8.082-0.153,8.996-1.083c0.114,0.115,0.19,0.237,0.21,0.361H378.234L378.234,564.03z   M379.489,558.453v1.714c0,0.352-0.357,0.687-0.992,0.988c-1.677,0.785-5.29,1.33-9.483,1.33c-4.19,0-7.807-0.545-9.479-1.33  c-0.639-0.303-0.994-0.637-0.994-0.988v-1.714c0-0.901,2.321-1.681,5.713-2.065v-3.597c0-0.577,0.472-1.051,1.051-1.051h7.037  c0.579,0,1.053,0.474,1.053,1.053v3.557C376.987,556.715,379.489,557.519,379.489,558.453z M371.488,554.787  c0-0.628-0.085-1.142-0.191-1.142c-0.104,0-0.705,0-1.331,0h-2.286c-0.628,0-1.228,0-1.334,0c-0.104,0-0.19,0.514-0.19,1.142v1.436  l0.289-0.017c0.82-0.047,1.681-0.073,2.566-0.073c0.855,0,1.683,0.026,2.478,0.067V554.787z"/><g><path fill="#000000" d="M496.525,559.535c0-5.621-4.557-10.178-10.178-10.178s-10.178,4.557-10.178,10.178   c0,3.581,1.85,6.727,4.645,8.541l5.533,11.281l5.535-11.282C494.676,566.26,496.525,563.115,496.525,559.535z M486.347,553.574   c3.293,0,5.962,2.668,5.962,5.961c0,3.294-2.669,5.962-5.962,5.962s-5.962-2.669-5.962-5.962S483.054,553.574,486.347,553.574z"/></g><g><polygon fill="#000000" points="379.514,651.448 372.764,651.448 370.211,648.042 367.859,651.157 370.889,655.198    379.514,655.198 379.514,658.948 387.014,653.323 379.514,647.698  "/><polygon fill="#000000" points="362.234,643.657 364.586,640.542 361.514,636.448 351.014,636.448 351.014,640.198    359.639,640.198  "/><polygon fill="#000000" points="379.514,640.198 379.514,643.948 387.014,638.323 379.514,632.698 379.514,636.448    370.969,636.448 359.641,651.448 351.014,651.448 351.014,655.198 361.516,655.198 372.844,640.198  "/></g><g><polygon fill="#000000" points="494.919,642.785 490.632,642.785 490.632,629.785 482.062,629.785 482.062,642.785    477.775,642.785 486.347,653.5  "/><polyline fill="#000000" stroke="#010101" stroke-width="3" stroke-miterlimit="10" points="471.847,649.214 471.847,658.669    500.847,658.669 500.847,649.214  "/></g><g><path d="M-117.269,629.174c-0.29-0.29-0.759-0.29-1.05,0l-6.123,6.122c-0.291,0.289-0.291,0.761,0,1.051l22.391,22.391   c0.289,0.29,0.762,0.29,1.051,0l6.121-6.122c0.292-0.289,0.292-0.76,0-1.047L-117.269,629.174z"/><rect x="-121.37" y="635.074" transform="matrix(-0.7117 0.7025 -0.7025 -0.7117 243.0634 1170.9558)" fill="#000000" width="5.244" height="0.561"/><rect x="-119.424" y="637.666" transform="matrix(-0.704 0.7102 -0.7102 -0.704 251.8514 1170.9308)" fill="#000000" width="2.706" height="0.56"/><rect x="-117.764" y="639.287" transform="matrix(-0.7044 0.7098 -0.7098 -0.7044 255.5604 1172.7037)" fill="#000000" width="2.706" height="0.559"/><rect x="-115.983" y="641.068" transform="matrix(-0.7027 0.7115 -0.7115 -0.7027 261.1503 1173.5659)" fill="#000000" width="2.707" height="0.56"/><rect x="-112.682" y="644.369" transform="matrix(-0.7028 0.7114 -0.7114 -0.7028 269.0523 1176.8866)" fill="#000000" width="2.707" height="0.561"/><rect x="-111.121" y="646.049" transform="matrix(-0.7027 0.7115 -0.7115 -0.7027 272.9739 1178.5889)" fill="#000000" width="2.707" height="0.561"/><rect x="-109.32" y="647.79" transform="matrix(-0.7027 0.7115 -0.7115 -0.7027 277.2786 1180.2715)" fill="#000000" width="2.707" height="0.56"/><rect x="-106.336" y="650.881" transform="matrix(-0.7028 0.7114 -0.7114 -0.7028 284.49 1183.462)" fill="#000000" width="2.707" height="0.561"/><rect x="-104.635" y="652.482" transform="matrix(-0.7027 0.7115 -0.7115 -0.7027 288.5932 1184.9271)" fill="#000000" width="2.707" height="0.561"/><rect x="-102.809" y="654.275" transform="matrix(-0.7027 0.7115 -0.7115 -0.7027 292.9779 1186.6798)" fill="#000000" width="2.707" height="0.56"/><rect x="-114.774" y="641.792" transform="matrix(-0.7088 0.7054 -0.7054 -0.7088 261.4591 1176.2058)" fill="#000000" width="5.428" height="0.562"/><rect x="-108.252" y="648.335" transform="matrix(-0.7088 0.7054 -0.7054 -0.7088 277.2206 1182.7849)" fill="#000000" width="5.428" height="0.562"/></g><path fill="#000000" d="M24.237,710.359c2.589,0,4.688,2.099,4.688,4.688c0,1.056-0.349,2.029-0.938,2.813l-1.875,1.875  l-6.563-6.563l1.875-1.875C22.208,710.708,23.182,710.359,24.237,710.359z M0.8,731.921l-1.875,8.438l8.438-1.875l17.344-17.344  l-6.563-6.563L0.8,731.921z M19.889,721.01L6.764,734.135l-1.616-1.615l13.125-13.125L19.889,721.01z"/><g><path fill="#000000" d="M137.78,726.2v-4.104c0.001-5.011-4.078-9.087-9.088-9.087c-5.012,0-9.089,4.076-9.089,9.087v4.104h-1.954   v16.809h22.078V726.2H137.78z M123.024,722.095c0-3.121,2.542-5.658,5.666-5.658c3.119,0,5.66,2.538,5.66,5.658v4.104h-11.326   V722.095z M130.252,738.4h-3.119l0.468-4.606c-0.577-0.359-0.965-1.001-0.965-1.736c0-1.131,0.918-2.05,2.056-2.05   c1.132,0,2.048,0.919,2.048,2.05c0,0.735-0.382,1.375-0.964,1.736L130.252,738.4z"/></g><g><path fill="#000000" d="M264.24,726.2h-3.43h-11.325h-3.422h-1.954v16.809h22.078V726.2H264.24z M256.712,738.4h-3.119l0.468-4.606   c-0.577-0.359-0.966-1.001-0.966-1.736c0-1.131,0.919-2.05,2.057-2.05c1.132,0,2.049,0.919,2.049,2.05   c0,0.735-0.383,1.375-0.965,1.736L256.712,738.4z"/><path fill="#000000" d="M240.714,713.008c-5.012,0-9.089,4.076-9.089,9.087v4.104h3.422v-4.104c0-3.121,2.542-5.658,5.666-5.658   c3.119,0,5.659,2.538,5.659,5.658v4.104h3.43v-4.104C249.804,717.084,245.724,713.008,240.714,713.008z"/></g><path fill="#000000" d="M385.014,723.963v20h-24v-6l-8,6v-20l8,6v-6H385.014z"/><path fill="#000000" d="M2.889,811.937h-3.788h-0.117v9.375l2.775-2.553c2.722,3.814,7.182,6.303,12.225,6.303  c7.65,0,13.96-5.728,14.883-13.125h-3.788c-0.892,5.321-5.521,9.375-11.095,9.375c-3.947,0-7.425-2.036-9.43-5.116l4.633-4.259  H2.889z"/><path fill="#000000" d="M13.866,795.062c-7.65,0-13.96,5.728-14.883,13.125h3.788c0.892-5.321,5.521-9.375,11.095-9.375  c4.066,0,7.632,2.157,9.607,5.393l-3.982,3.982h3.75h1.72h3.788h0.117v-9.375l-2.685,2.685  C23.472,797.607,18.968,795.062,13.866,795.062z"/><polyline fill="none" stroke="#000000" stroke-width="4" stroke-linecap="square" stroke-miterlimit="10" points="-122.265,810.885   -113.199,819.982 -97.055,803.869 "/><path fill="#000000" d="M493.847,720.774h-15v-3.75h-7.5v7.5h3.75v15h-3.75v7.5h7.5v-3.75h15v3.75h7.5v-7.5h-3.75v-15h3.75v-7.5  h-7.5V720.774z M495.722,739.524h-1.875v1.875h-15v-1.875h-1.875v-15h1.875v-1.875h15v1.875h1.875V739.524z"/><g><path fill="#000000" d="M251.785,804.07l-1.725,1.53v0.112c1.426,1.558,2.309,3.689,2.309,6.042s-0.883,4.484-2.309,6.042v0.112   l1.725,1.53c1.791-1.994,2.891-4.7,2.891-7.685S253.576,806.064,251.785,804.07z"/><polygon fill="#000000" points="233.906,807.139 233.906,811.754 233.906,816.37 238.521,816.37 245.445,823.293 245.445,800.215    238.521,807.139  "/><path fill="#000000" d="M255.416,800.842l-1.727,1.533c2.061,2.568,3.295,5.83,3.295,9.379s-1.234,6.813-3.293,9.379l1.725,1.533   c2.424-2.975,3.875-6.772,3.875-10.912C259.291,807.617,257.839,803.817,255.416,800.842z"/><path fill="#000000" d="M258.939,797.709l-1.734,1.542c2.746,3.412,4.395,7.761,4.395,12.503s-1.648,9.091-4.395,12.503   l1.734,1.542c3.102-3.822,4.967-8.713,4.967-14.045S262.041,801.532,258.939,797.709z"/></g><path fill="#000000" d="M123.066,796.938v7.498v11.636c-1.283-0.56-3.061-0.56-4.783,0.325c-2.558,1.316-3.279,3.714-2.295,5.232  c0.984,1.52,3.675,2.162,6.234,0.847c1.842-0.949,2.73-2.458,2.717-3.794v-14.621l15-2.999v13.134  c-1.284-0.559-3.062-0.559-4.783,0.326c-2.558,1.316-3.279,3.713-2.294,5.233c0.981,1.52,3.673,2.16,6.231,0.846  c1.836-0.946,2.728-2.454,2.717-3.791v-16.123v-5.625v-1.875L123.066,796.938z"/><g><g><path fill="#000000" d="M486.348,477.483c-2.508,0-4.549,2.038-4.549,4.547c0,2.508,2.041,4.548,4.549,4.548    s4.547-2.04,4.547-4.548C490.895,479.52,488.856,477.483,486.348,477.483z"/></g><g><path fill="#000000" d="M491.633,471.945l-2.48-2.479h-5.557l-2.148,2.479h-10.101v19.546h30v-19.546H491.633z M477.127,475.913    h-2.809v-1.158h2.809V475.913z M486.348,488.642c-3.646,0-6.613-2.967-6.613-6.613c0-3.646,2.967-6.612,6.613-6.612    c3.645,0,6.611,2.967,6.611,6.612C492.959,485.675,489.993,488.642,486.348,488.642z"/></g></g><text x="0" y="43.269999999999996" fill="#000000" font-size="5px" font-weight="bold" font-family="'Helvetica Neue', Helvetica, Arial-Unicode, Arial, Sans-serif">Created by Ekaterina Martirosian</text><text x="0" y="48.269999999999996" fill="#000000" font-size="5px" font-weight="bold" font-family="'Helvetica Neue', Helvetica, Arial-Unicode, Arial, Sans-serif">from the Noun Project</text></svg>