<svg xmlns="http://www.w3.org/2000/svg" xmlns:xlink="http://www.w3.org/1999/xlink" version="1.1" x="0px" y="0px" viewBox="0 0 16 20" style="enable-background:new 0 0 16 16;" xml:space="preserve"><g><path d="M8,7C7.383,7,7,7.479,7,8.25C7,9.021,7.383,9.5,8,9.5s1-0.479,1-1.25C9,7.479,8.617,7,8,7z"/><path d="M8,0C3.582,0,0,3.582,0,8s3.582,8,8,8s8-3.582,8-8S12.418,0,8,0z M13,8.5c0,1.103-0.897,2-2,2   c-0.604,0-1.14-0.275-1.507-0.7C9.138,10.238,8.621,10.5,8,10.5c-1.178,0-2-0.925-2-2.25C6,6.925,6.822,6,8,6   c0.395,0,0.745,0.112,1.043,0.3C9.12,6.124,9.295,6,9.5,6C9.776,6,10,6.224,10,6.5v2c0,0.552,0.448,1,1,1s1-0.448,1-1V8.209   c0-2.125-1.489-3.919-3.465-4.174C7.222,3.867,5.959,4.319,5.067,5.279C4.176,6.24,3.818,7.543,4.088,8.854   c0.305,1.482,1.498,2.704,2.967,3.038c0.942,0.214,1.882,0.108,2.717-0.307c0.249-0.121,0.547-0.022,0.671,0.226   c0.122,0.248,0.021,0.548-0.226,0.671c-0.694,0.344-1.444,0.519-2.213,0.519c-0.387,0-0.779-0.044-1.171-0.134   c-1.874-0.426-3.336-1.922-3.725-3.812C2.773,7.424,3.22,5.8,4.334,4.599C5.45,3.398,7.027,2.835,8.663,3.042   C11.136,3.362,13,5.583,13,8.209V8.5z"/></g><text x="0" y="31" fill="#000000" font-size="5px" font-weight="bold" font-family="'Helvetica Neue', Helvetica, Arial-Unicode, Arial, Sans-serif">Created by icon 54</text><text x="0" y="36" fill="#000000" font-size="5px" font-weight="bold" font-family="'Helvetica Neue', Helvetica, Arial-Unicode, Arial, Sans-serif">from the Noun Project</text></svg>